<!-- icon666.com - MILLIONS vector ICONS FREE --><svg clip-rule="evenodd" fill-rule="evenodd" image-rendering="optimizeQuality" shape-rendering="geometricPrecision" text-rendering="geometricPrecision" viewBox="0 0 43.3492 43.3492" xmlns="http://www.w3.org/2000/svg"><g id="Layer_x0020_1"><path d="m12.3894 23.8145 24.3774-14.0743c2.0983-1.2114 4.7826-.4922 5.994 1.6061 1.2115 2.0984.4923 4.7826-1.6061 5.9941l-28.1495 16.2521c-.0092.0055-.0185.0111-.0278.0164-2.0984 1.2116-4.7829.4923-5.9945-1.6062l-.5851-1.0134.0003-.0002-5.8097-10.0628c-1.2115-2.0983-.4922-4.7825 1.6061-5.994s4.7826-.4923 5.9941 1.6061zm-5.2143-6.691c-.8885-1.539-2.8565-2.0664-4.3955-1.1778-1.539.8885-2.0663 2.8565-1.1778 4.3955l6.3948 11.0762-.0002.0002c.8886 1.5392 2.8568 2.0665 4.3959 1.1779.0076-.0043.015-.0089.0225-.0133l28.1548-16.2552c1.5391-.8886 2.0664-2.8565 1.1778-4.3956-.8885-1.539-2.8565-2.0663-4.3955-1.1778l-25.3908 14.6594z" fill="#4b4439"></path><path d="m37.3519 10.7537-25.3908 14.6593-4.786-8.2895c-.8885-1.5391-2.8565-2.0664-4.3955-1.1778s-2.0663 2.8565-1.1778 4.3956l6.3946 11.0763c.8886 1.5392 2.8568 2.0665 4.396 1.1779l.0223-.0133 28.155-16.2552c1.539-.8886 2.0663-2.8565 1.1777-4.3956-.8885-1.539-2.8565-2.0663-4.3955-1.1777z" fill="#dce775"></path><path d="m39.8082 15.0081-28.1495 16.2521-.0278.0165c-1.0945.6318-2.3483.7385-3.4695.3982.9503 1.3382 2.781 1.7577 4.231.9206l.0224-.0133 28.1549-16.2552c1.4498-.8371 2.0018-2.6322 1.318-4.1241-.2659 1.141-.9851 2.1734-2.0795 2.8052z" fill="#a6ae5a"></path></g></svg>