<?xml version="1.0" encoding="UTF-8"?>
<svg id="_Слой_1" data-name="Слой 1" xmlns="http://www.w3.org/2000/svg" xmlns:xlink="http://www.w3.org/1999/xlink" viewBox="0 0 83.24 48.78">
  <defs>
    <style>
      .cls-1 {
        fill: none;
      }

      .cls-1, .cls-2, .cls-3 {
        stroke-width: 0px;
      }

      .cls-2 {
        fill: #c91517;
      }

      .cls-4 {
        clip-path: url(#clippath);
      }

      .cls-3 {
        fill: #b59571;
      }
    </style>
    <clipPath id="clippath">
      <rect class="cls-1" x=".05" width="80" height="46"/>
    </clipPath>
  </defs>
  <g class="cls-4">
    <g>
      <path class="cls-3" d="m70.39,34.12c-.31,0-.55-.15-.73-.5-.16-.3-.26-.8-.26-1.4V13.74c0-.6.08-1.1.26-1.4.18-.3.42-.45.73-.45h1.75c.39,0,.73.05,1.02.1.29.1.55.25.73.55.21.3.34.7.44,1.3.1.55.16,1.35.16,2.3v13.72c0,1.25-.08,2.15-.26,2.75s-.44,1-.78,1.2c-.34.2-.78.3-1.31.25l-1.75.05ZM64.77,1.12c-.31.05-.57.2-.73.5-.16.3-.24.8-.24,1.4v39.96c0,.6.08,1.05.26,1.4.16.3.42.5.73.5h7.26c1.52,0,2.82-.3,3.87-.9,1.05-.6,1.88-1.55,2.51-2.75.63-1.2,1.1-2.8,1.36-4.71.29-1.9.42-4.11.42-6.66v-13.72c0-2.55-.13-4.76-.42-6.66s-.73-3.46-1.36-4.66c-.63-1.25-1.46-2.15-2.51-2.75-1.05-.6-2.33-.9-3.87-.9l-7.29-.05Zm-9.51,26.39c0,1.2-.03,2.3-.05,3.25-.05.95-.16,1.75-.31,2.45-.16.7-.42,1.2-.78,1.55-.34.35-.81.55-1.41.55s-1.07-.2-1.41-.55c-.37-.35-.6-.85-.78-1.55-.16-.65-.26-1.5-.31-2.45-.05-.95-.08-2.05-.05-3.25v-9.01c0-1.2.03-2.3.05-3.25.05-.95.16-1.75.31-2.45.16-.7.42-1.2.78-1.55.34-.35.81-.55,1.41-.55s1.07.2,1.41.55c.37.35.6.85.78,1.55.16.65.26,1.5.31,2.45.05.95.05,2.05.05,3.25v9.01Zm5.59-12.32c0-.7-.03-1.55-.08-2.55-.05-1-.16-2.05-.34-3.2-.18-1.15-.44-2.25-.78-3.36-.37-1.1-.84-2.1-1.44-3-.6-.9-1.36-1.65-2.27-2.2-.91-.55-2.01-.8-3.29-.85-1.28,0-2.38.3-3.29.85-.91.55-1.67,1.3-2.27,2.2-.6.9-1.07,1.9-1.44,3-.37,1.1-.63,2.25-.78,3.36-.18,1.15-.29,2.2-.34,3.2-.05,1-.08,1.85-.08,2.55v15.62c0,.7.03,1.55.08,2.55.05,1,.16,2.05.34,3.2.16,1.15.44,2.25.78,3.36.37,1.1.84,2.1,1.44,3.05.6.9,1.36,1.65,2.27,2.15.91.55,2.01.85,3.29.85s2.38-.3,3.29-.85c.91-.55,1.67-1.25,2.27-2.15.6-.9,1.07-1.9,1.44-3.05.37-1.1.63-2.25.78-3.36.16-1.15.29-2.2.34-3.2.05-1,.08-1.85.08-2.55v-15.62Zm-24.59,12.32c0,1.2-.03,2.3-.05,3.25-.05.95-.16,1.75-.31,2.45-.16.7-.42,1.2-.78,1.55-.34.35-.81.55-1.41.55s-1.07-.2-1.41-.55c-.37-.35-.6-.85-.78-1.55-.16-.65-.26-1.5-.31-2.45-.05-.95-.08-2.05-.05-3.25v-9.01c0-1.2.03-2.3.05-3.25.05-.95.16-1.75.31-2.45.16-.7.42-1.2.78-1.55.34-.35.81-.55,1.41-.55s1.07.2,1.41.55c.37.35.6.85.78,1.55.16.65.26,1.5.31,2.45.05.95.05,2.05.05,3.25v9.01Zm5.62-12.32c0-.7-.03-1.55-.08-2.55-.05-1-.16-2.05-.34-3.2-.18-1.15-.44-2.25-.78-3.36-.37-1.1-.84-2.1-1.44-3-.6-.9-1.36-1.65-2.27-2.2-.91-.55-2.01-.8-3.29-.85-1.28,0-2.38.3-3.29.85-.91.55-1.67,1.3-2.27,2.2-.6.9-1.07,1.9-1.44,3-.37,1.1-.63,2.25-.78,3.36-.18,1.15-.29,2.2-.34,3.2-.05,1-.08,1.85-.08,2.55v15.62c0,.7.03,1.55.08,2.55.05,1,.16,2.05.34,3.2.16,1.15.44,2.25.78,3.36.37,1.1.84,2.1,1.44,3.05.6.9,1.36,1.65,2.27,2.15.91.55,2.01.85,3.29.85s2.38-.3,3.29-.85c.91-.55,1.67-1.25,2.27-2.15.6-.9,1.07-1.9,1.44-3.05.37-1.1.63-2.25.78-3.36.16-1.15.29-2.2.34-3.2.05-1,.08-1.85.08-2.55v-15.62ZM22.6,1.12c.65,0,.97.65.97,1.85v7.01c0,.6-.08,1.05-.24,1.4-.16.35-.42.5-.73.5h-8.52c-.31,0-.55.15-.73.45-.18.3-.26.8-.26,1.4v29.29c0,.6-.08,1.05-.24,1.4-.16.3-.42.5-.73.5h-3.84c-.31,0-.55-.15-.73-.5-.16-.35-.26-.8-.26-1.4V3.02c0-.6.08-1.1.26-1.4.18-.3.42-.45.73-.45l14.32-.05Z"/>
      <path class="cls-3" d="m15.34,24.9c-2.43-.4-14.29,3.31-15.18-.7-1.49-6.66,10.97-2.9,12.65-2.8.84.05,1.88.35,2.48.05.42-.25.71-1.55,1.18-2.05,1.05-1.2,2.74-.55,4.21-.3.99.15,1.96.35,3,.5-1.49.4-3.08.8-4.65,1.2-.18.05-.47-.1-.6.3,1.59.5,3.4.6,5.12.85-1.7.5-3.61.6-5.28,1.2.1.35.42.25.6.3,1.49.2,3.14.45,4.7.6-1.62.5-3.5.6-5.12,1.2.05.5.39.35.55.35,1.49.35,3.16.75,4.7,1-1.7.25-3.79,1-5.54,1.2-1.36.15-2.17-1.35-2.82-2.9Z"/>
      <path class="cls-3" d="m11.13,25.3c1.88-.3,3.47-.55,4.21-.45.34.8.68,1.55,1.15,2.1.44.55.97.9,1.65.8.97-.1,2.04-.4,3.08-.65.76-.2,1.49-.4,2.17-.5-.68-.1-1.36-.25-2.06-.4-.81-.15-1.59-.35-2.33-.55h-.13c-.18,0-.42,0-.44-.4v-.05h.03c.89-.35,1.88-.55,2.87-.7.68-.1,1.36-.25,1.99-.4-1.18-.15-2.4-.3-3.55-.45-.29-.05-.57-.1-.86-.1h-.13c-.18,0-.39,0-.5-.3l-.03-.05h.03c.94-.35,1.96-.55,2.98-.7.68-.1,1.38-.25,2.04-.4-.34-.05-.71-.1-1.05-.15-1.31-.15-2.64-.3-3.81-.65h-.05l.03-.05c.1-.3.29-.3.44-.3h.16l1.25-.3c1.05-.25,2.12-.55,3.11-.8-.6-.1-1.2-.2-1.78-.3-.31-.05-.6-.1-.94-.15l-.78-.15c-1.25-.25-2.56-.55-3.4.45-.21.25-.39.65-.55,1.05-.21.45-.39.9-.63,1.05-.42.2-1.05.15-1.67.05-.29-.05-.57-.1-.84-.1-.29,0-.89-.15-1.67-.3-2.82-.85-8.13-1.9-10.19-.2-.73.6-1.05,1.5-.73,2.95.6,2.75,6.56,1.8,10.95,1.1Zm4.21-.35c-.73-.1-2.33.15-4.21.45-4.39.7-10.37,1.65-11-1.2-.34-1.5,0-2.45.76-3.1,2.09-1.7,7.39-.65,10.24-.1.78.15,1.38.3,1.67.3.26,0,.55.05.84.1.63.1,1.23.15,1.65-.05.21-.1.39-.55.6-1,.18-.4.34-.8.57-1.05.86-1,2.17-.7,3.45-.45l.78.15c.29.05.63.1.94.15.68.1,1.36.25,2.06.3l.29.05-.26.1c-1.07.3-2.22.6-3.37.9l-1.25.3h-.16c-.13,0-.29,0-.39.2,1.18.35,2.48.5,3.79.65.44.05.86.1,1.31.15l.26.05-.26.05c-.73.2-1.52.35-2.3.5-.99.2-2.01.35-2.93.7.08.2.26.2.42.2h.13c.29.05.57.1.86.1,1.25.2,2.56.35,3.81.5l.26.05-.26.1c-.73.2-1.49.35-2.25.5-.97.2-1.93.35-2.82.7.05.3.24.25.39.25h.13c.76.15,1.54.35,2.33.55.78.15,1.59.35,2.35.45v.1c-.76.1-1.62.35-2.48.55-1.05.25-2.12.55-3.08.65-.68.1-1.23-.25-1.67-.8-.52-.5-.89-1.25-1.2-2.05Z"/>
    </g>
  </g>
  <path class="cls-2" d="m71,36.17c-3.48,0-6.3,2.83-6.3,6.3s2.83,6.3,6.3,6.3,6.3-2.83,6.3-6.3-2.83-6.3-6.3-6.3Zm0,9.45c-1.74,0-3.15-1.41-3.15-3.15s1.41-3.15,3.15-3.15,3.15,1.41,3.15,3.15-1.41,3.15-3.15,3.15Z"/>
  <path class="cls-2" d="m49.47,36.17c-3.48,0-6.3,2.83-6.3,6.3s2.83,6.3,6.3,6.3,6.3-2.83,6.3-6.3-2.83-6.3-6.3-6.3Zm0,9.45c-1.74,0-3.15-1.41-3.15-3.15s1.41-3.15,3.15-3.15,3.15,1.41,3.15,3.15-1.41,3.15-3.15,3.15Z"/>
  <path class="cls-2" d="m75.25,18.13c-.27-.53-.81-.87-1.41-.87h-8.3v3.15h7.33l4.29,8.53,2.82-1.42-4.73-9.4Z"/>
  <rect class="cls-2" x="54.35" y="40.95" width="11.92" height="3.15"/>
  <path class="cls-2" d="m44.74,40.95h-5.46c-.87,0-1.58.71-1.58,1.58s.71,1.58,1.58,1.58h5.46c.87,0,1.58-.71,1.58-1.58s-.71-1.58-1.58-1.58Z"/>
  <path class="cls-2" d="m82.91,31.32l-3.1-3.99c-.3-.38-.76-.61-1.24-.61h-11.45v-11.03c0-.87-.71-1.58-1.58-1.58h-26.26c-.87,0-1.58.71-1.58,1.58s.71,1.58,1.58,1.58h24.68v11.03c0,.87.71,1.58,1.58,1.58h12.25l2.29,2.96v8.13h-4.36c-.87,0-1.58.71-1.58,1.58s.71,1.58,1.58,1.58h5.93c.87,0,1.58-.71,1.58-1.58v-10.24c0-.35-.12-.69-.33-.97Z"/>
  <path class="cls-2" d="m44.64,32.97h-7.25c-.87,0-1.58.71-1.58,1.58s.71,1.58,1.58,1.58h7.25c.87,0,1.58-.71,1.58-1.58,0-.87-.71-1.58-1.58-1.58Z"/>
  <path class="cls-2" d="m48.26,26.77h-13.45c-.87,0-1.58.71-1.58,1.58s.71,1.58,1.58,1.58h13.45c.87,0,1.58-.71,1.58-1.58s-.71-1.58-1.58-1.58Z"/>
  <path class="cls-2" d="m50.83,20.57h-13.45c-.87,0-1.58.71-1.58,1.58s.71,1.58,1.58,1.58h13.45c.87,0,1.58-.71,1.58-1.58,0-.87-.71-1.58-1.58-1.58Z"/>
</svg>